<svg width="62" height="38" viewBox="0 0 62 38" fill="none" xmlns="http://www.w3.org/2000/svg">
<path d="M5.12155 16.4436L5.41566 17.5412L3.61553 18.0235L2.32031 18.3706L1.04704 18.7118L0.752928 17.6141L2.02619 17.2729L3.32141 16.9259L5.12155 16.4436ZM1.48503 15.2533L2.78025 14.9062L3.32141 16.9259L3.61553 18.0235L4.93315 22.941C5.03119 23.3069 5.15777 23.5671 5.31289 23.7216C5.4707 23.8714 5.64208 23.9549 5.82705 23.972C6.0147 23.9845 6.20366 23.9652 6.39392 23.9143C6.53661 23.876 6.65173 23.8373 6.73928 23.7982C6.82585 23.7554 6.8951 23.7211 6.94704 23.6955L7.52224 24.7884C7.44325 24.8448 7.3295 24.9106 7.181 24.9857C7.03347 25.0644 6.83897 25.1362 6.59749 25.2009C6.23161 25.2989 5.85196 25.3163 5.45856 25.2531C5.06882 25.1889 4.71556 25.0267 4.39878 24.7665C4.08566 24.5053 3.86342 24.1296 3.73205 23.6393L2.32031 18.3706L2.02619 17.2729L1.48503 15.2533Z" fill="white"/>
<path d="M9.32865 24.3514L7.06986 15.9215L8.32118 15.5862L8.66235 16.8595L8.75016 16.836C8.79207 16.3777 8.97945 15.9647 9.31231 15.5971C9.64518 15.2295 10.0641 14.978 10.569 14.8427C10.6641 14.8173 10.7835 14.7872 10.9272 14.7526C11.0709 14.7181 11.1803 14.6946 11.2554 14.6823L11.6083 15.9995C11.5615 16.0003 11.4565 16.0108 11.2933 16.031C11.1327 16.0466 10.9665 16.0774 10.7945 16.1235C10.3847 16.2333 10.0419 16.4173 9.76598 16.6755C9.49276 16.9291 9.30304 17.2309 9.19684 17.581C9.09331 17.9263 9.09252 18.2893 9.19448 18.6698L10.6239 24.0043L9.32865 24.3514Z" fill="white"/>
<path d="M17.6125 22.3435C17.0784 22.4866 16.5666 22.5159 16.0773 22.4313C15.587 22.3431 15.1623 22.1412 14.8032 21.8257C14.4432 21.5065 14.1897 21.0725 14.0426 20.5236C13.9132 20.0407 13.9034 19.6237 14.0133 19.2727C14.1222 18.918 14.3127 18.6121 14.585 18.3548C14.8572 18.0976 15.1742 17.8754 15.5358 17.6883C15.9001 17.4966 16.2711 17.3226 16.6489 17.1665C17.1435 16.9634 17.5455 16.8027 17.855 16.6845C18.1672 16.5616 18.3852 16.4385 18.509 16.3152C18.6364 16.1908 18.6722 16.0244 18.6163 15.8158L18.6046 15.7719C18.4595 15.2304 18.1986 14.8493 17.8218 14.6287C17.4487 14.4071 16.964 14.3762 16.3676 14.536C15.7492 14.7017 15.3007 14.967 15.022 15.3319C14.7433 15.6967 14.5738 16.052 14.5135 16.3975L13.1665 16.2879C13.2487 15.7168 13.4346 15.2396 13.724 14.8562C14.0161 14.4681 14.3646 14.159 14.7696 13.9289C15.1773 13.6942 15.5934 13.52 16.0178 13.4063C16.2886 13.3337 16.6084 13.2833 16.9773 13.2551C17.3488 13.2222 17.7257 13.2604 18.108 13.3697C18.4939 13.4781 18.85 13.7023 19.1764 14.0422C19.5028 14.3822 19.7557 14.887 19.9351 15.5566L21.4233 21.1106L20.1281 21.4577L19.8222 20.3162L19.7563 20.3338C19.7176 20.5403 19.6237 20.7752 19.4746 21.0387C19.3256 21.3021 19.1006 21.5526 18.7995 21.7902C18.4985 22.0277 18.1028 22.2121 17.6125 22.3435ZM17.4984 21.1271C18.0106 20.9898 18.4154 20.7735 18.7127 20.4782C19.0137 20.1818 19.2112 19.8505 19.3052 19.4841C19.4028 19.1168 19.4046 18.7575 19.3105 18.4063L18.9928 17.2208C18.9556 17.3014 18.851 17.3941 18.6791 17.499C18.5099 17.5992 18.3099 17.7018 18.0792 17.8068C17.8512 17.9071 17.6277 18.0023 17.4087 18.0923C17.1924 18.1777 17.0172 18.2482 16.883 18.3038C16.5582 18.4379 16.2626 18.5935 15.9964 18.7707C15.7328 18.9433 15.5374 19.1506 15.4101 19.3925C15.2854 19.6298 15.2672 19.9131 15.3555 20.2424C15.4761 20.6925 15.7337 20.9881 16.1284 21.1294C16.5258 21.2661 16.9825 21.2653 17.4984 21.1271Z" fill="white"/>
<path d="M27.0176 19.7999C26.3151 19.9881 25.6474 19.9769 25.0144 19.7661C24.3805 19.5516 23.8244 19.1594 23.3463 18.5895C22.8671 18.016 22.5079 17.2828 22.2687 16.3901C22.0314 15.5047 21.9774 14.6956 22.1066 13.963C22.2357 13.2303 22.5235 12.614 22.9699 12.114C23.4164 11.614 23.9945 11.2689 24.7043 11.0787C25.2531 10.9317 25.7112 10.907 26.0785 11.0046C26.4485 11.0976 26.7486 11.2368 26.9786 11.4222C27.2114 11.603 27.3949 11.7538 27.5293 11.8747L27.639 11.8453L26.5273 7.69619L27.8225 7.34914L30.8342 18.589L29.5829 18.9243L29.2359 17.6291L29.0822 17.6702C29.0282 17.8494 28.9448 18.0796 28.8319 18.3608C28.7181 18.6384 28.5228 18.9123 28.2462 19.1825C27.9686 19.449 27.5591 19.6548 27.0176 19.7999ZM26.8814 18.5893C27.401 18.4501 27.8038 18.1971 28.0898 17.8303C28.3748 17.4598 28.5459 17.0081 28.6031 16.4751C28.6593 15.9385 28.6021 15.3519 28.4316 14.7152C28.2629 14.0859 28.0239 13.5598 27.7145 13.1368C27.4041 12.7102 27.0344 12.4132 26.6052 12.2458C26.1751 12.0748 25.6966 12.0599 25.1697 12.2011C24.6209 12.3481 24.2013 12.6115 23.9109 12.9913C23.6232 13.3664 23.4521 13.8181 23.3975 14.3465C23.3457 14.8701 23.3992 15.4284 23.558 16.0211C23.7188 16.6211 23.9564 17.1418 24.2707 17.583C24.5877 18.0197 24.966 18.334 25.4057 18.526C25.848 18.7133 26.3399 18.7344 26.8814 18.5893Z" fill="#7992ED"/>
<path d="M36.9677 17.1338C36.1555 17.3514 35.4068 17.3599 34.7216 17.1591C34.0391 16.9538 33.452 16.5699 32.9601 16.0076C32.471 15.4407 32.1107 14.7255 31.8793 13.862C31.648 12.9985 31.6014 12.1953 31.7396 11.4524C31.8804 10.7049 32.1849 10.0704 32.653 9.54886C33.1238 9.02272 33.7397 8.6577 34.5007 8.45378C34.9398 8.33613 35.393 8.29313 35.8603 8.32478C36.3276 8.35643 36.7809 8.48984 37.2204 8.72502C37.6589 8.95654 38.0545 9.31328 38.4072 9.79524C38.7598 10.2772 39.0416 10.9115 39.2523 11.6982L39.3994 12.247L33.2774 13.8874L32.9807 12.7669L37.7822 11.4803C37.6548 11.0047 37.4459 10.6057 37.1557 10.2835C36.8691 9.96032 36.5231 9.73735 36.1176 9.61462C35.7159 9.4909 35.2808 9.49179 34.8125 9.61728C34.2966 9.75551 33.8845 10.0032 33.5763 10.3603C33.2708 10.7127 33.0718 11.119 32.9794 11.579C32.8869 12.0391 32.903 12.5014 33.0275 12.9661L33.2275 13.7125C33.3981 14.3491 33.6525 14.8594 33.9906 15.2433C34.3314 15.6225 34.7303 15.8745 35.1872 15.9991C35.6432 16.1201 36.1327 16.1105 36.6559 15.9703C36.9962 15.8791 37.2908 15.7492 37.5397 15.5805C37.7913 15.4072 37.9918 15.1967 38.141 14.9488C38.2893 14.6973 38.3792 14.4105 38.4105 14.0884L39.7559 14.1044C39.7379 14.5641 39.6166 14.9966 39.3918 15.4019C39.1661 15.8035 38.8486 16.1553 38.4393 16.4571C38.029 16.7553 37.5385 16.9808 36.9677 17.1338Z" fill="white"/>
<path d="M32.7652 30.8008L29.6594 19.2097L30.9107 18.8744L31.2695 20.2135L31.4232 20.1723C31.4791 20.0005 31.5608 19.7786 31.6683 19.5067C31.7785 19.2301 31.9688 18.9595 32.239 18.6949C32.512 18.4257 32.9229 18.2176 33.4717 18.0705C34.1815 17.8803 34.8547 17.8901 35.4913 18.0999C36.1279 18.3098 36.6853 18.6996 37.1635 19.2695C37.6417 19.8394 37.9994 20.5671 38.2367 21.4525C38.4759 22.3452 38.5314 23.1598 38.4032 23.8961C38.274 24.6287 37.9885 25.2464 37.5468 25.749C37.104 26.2481 36.5314 26.5917 35.8289 26.7799C35.2874 26.925 34.8298 26.9515 34.4562 26.8595C34.0815 26.7638 33.7755 26.6243 33.5381 26.4408C33.2997 26.2537 33.1124 26.0961 32.9761 25.9679L32.8663 25.9973L34.0604 30.4537L32.7652 30.8008ZM32.062 23.0835C32.2326 23.7201 32.4764 24.2567 32.7934 24.6933C33.1094 25.1263 33.4835 25.4319 33.9155 25.6103C34.3467 25.785 34.822 25.8027 35.3415 25.6635C35.883 25.5184 36.2967 25.2546 36.5824 24.8722C36.8709 24.4851 37.0413 24.0237 37.0939 23.4881C37.1491 22.9478 37.0963 22.3776 36.9356 21.7776C36.7767 21.1849 36.5421 20.6752 36.2318 20.2486C35.924 19.8173 35.55 19.5116 35.1096 19.3316C34.6719 19.1469 34.1786 19.1281 33.6298 19.2752C33.1029 19.4164 32.696 19.6685 32.409 20.0317C32.121 20.3912 31.9493 20.8333 31.8938 21.358C31.8373 21.879 31.8934 22.4541 32.062 23.0835Z" fill="#7992ED"/>
<path d="M39.7559 14.1044L42.6088 24.7515L41.4234 25.0691L38.4105 14.0884L39.7559 14.1044Z" fill="white"/>
<path d="M47.7425 23.5877C47.2083 23.7308 46.6965 23.7601 46.2072 23.6755C45.7169 23.5873 45.2922 23.3854 44.9332 23.0699C44.5731 22.7507 44.3196 22.3167 44.1725 21.7678C44.0431 21.2849 44.0334 20.8679 44.1432 20.5169C44.2521 20.1622 44.4427 19.8563 44.7149 19.599C44.9871 19.3418 45.3041 19.1196 45.6657 18.9325C46.03 18.7408 46.401 18.5668 46.7788 18.4107C47.2734 18.2076 47.6754 18.0469 47.9849 17.9287C48.2971 17.8058 48.5151 17.6827 48.6389 17.5594C48.7664 17.435 48.8021 17.2686 48.7463 17.06L48.7345 17.0161C48.5894 16.4746 48.3285 16.0935 47.9517 15.8729C47.5786 15.6513 47.0939 15.6204 46.4975 15.7802C45.8792 15.9459 45.4307 16.2112 45.152 16.5761C44.8733 16.9409 44.7037 17.2962 44.6434 17.6417L43.2964 17.5321C43.3787 16.961 43.5645 16.4838 43.8539 16.1004C44.146 15.7123 44.4946 15.4032 44.8996 15.1731C45.3072 14.9384 45.7233 14.7642 46.1477 14.6505C46.4185 14.5779 46.7383 14.5275 47.1072 14.4993C47.4788 14.4664 47.8557 14.5046 48.2379 14.6139C48.6238 14.7223 48.9799 14.9465 49.3063 15.2864C49.6327 15.6264 49.8856 16.1312 50.065 16.8008L51.5532 22.3548L50.258 22.7019L49.9521 21.5603L49.8863 21.578C49.8475 21.7845 49.7536 22.0194 49.6046 22.2829C49.4556 22.5463 49.2305 22.7968 48.9295 23.0343C48.6284 23.2719 48.2327 23.4563 47.7425 23.5877ZM47.6283 22.3713C48.1405 22.234 48.5453 22.0177 48.8426 21.7223C49.1436 21.426 49.3411 21.0947 49.4351 20.7283C49.5327 20.361 49.5345 20.0017 49.4404 19.6504L49.1227 18.465C49.0855 18.5456 48.9809 18.6383 48.809 18.7432C48.6398 18.8434 48.4399 18.946 48.2092 19.051C47.9812 19.1513 47.7576 19.2464 47.5386 19.3365C47.3223 19.4219 47.1471 19.4924 47.013 19.5479C46.6881 19.682 46.3926 19.8377 46.1263 20.0149C45.8628 20.1875 45.6673 20.3948 45.54 20.6367C45.4154 20.874 45.3972 21.1573 45.4854 21.4866C45.606 21.9367 45.8636 22.2323 46.2583 22.3736C46.6557 22.5103 47.1124 22.5095 47.6283 22.3713Z" fill="white"/>
<path d="M53.8537 16.3032L55.2125 21.3743L53.9173 21.7214L51.6585 13.2915L52.9098 12.9562L53.2627 14.2734L53.3725 14.244C53.4554 13.763 53.6632 13.3386 53.9961 12.971C54.328 12.5997 54.8122 12.3288 55.4489 12.1582C56.0197 12.0053 56.5505 11.9885 57.0413 12.108C57.5311 12.2238 57.9582 12.4858 58.3225 12.8941C58.6858 13.2987 58.9635 13.8596 59.1557 14.5767L60.5909 19.9332L59.2957 20.2802L57.884 15.0116C57.7065 14.3493 57.3963 13.8795 56.9534 13.6021C56.5095 13.3211 55.9875 13.2609 55.3874 13.4217C54.974 13.5325 54.6285 13.7212 54.3509 13.9877C54.0769 14.2533 53.8927 14.583 53.7983 14.9769C53.7039 15.3709 53.7223 15.813 53.8537 16.3032Z" fill="white"/>
</svg>
